<?xml version="1.0" ?><!DOCTYPE svg  PUBLIC '-//W3C//DTD SVG 1.1//EN'  'http://www.w3.org/Graphics/SVG/1.1/DTD/svg11.dtd'><svg height="512px" style="enable-background:new 0 0 512 512;" version="1.1" viewBox="0 0 512 512" width="512px" xml:space="preserve" xmlns="http://www.w3.org/2000/svg" xmlns:xlink="http://www.w3.org/1999/xlink"><g id="youtube_x2C__social_x2C__social_media_x2C__network"><g><path d="M442.773,116.205L281.717,23.212c-8.084-4.659-17.064-7.046-26.089-7.207l0,0    c-0.015,0-0.021,0-0.029,0c-0.014,0-0.029,0-0.036,0l0,0c-9.018,0.161-18.006,2.548-26.089,7.207l-161.05,92.985    c-16.728,9.659-27.03,27.497-27.03,46.817v185.956c0,19.32,10.303,37.172,27.03,46.818l161.05,92.992    c8.083,4.658,17.064,7.045,26.089,7.207v0.006c0.007,0,0.022-0.006,0.036-0.006c0.008,0,0.015,0.006,0.029,0.006v-0.006    c9.017-0.162,18.005-2.541,26.089-7.207l161.057-92.986c16.721-9.652,27.031-27.496,27.031-46.816V163.022    C469.805,143.703,459.494,125.85,442.773,116.205z" style="fill:#D91F26;"/><path d="M373.234,213.622c0,0-2.352-17.414-9.602-25.059c-9.207-10.047-19.533-10.105-24.277-10.689    c-33.902-2.541-84.72-2.541-84.72-2.541h-0.11c0,0-50.848,0-84.727,2.541c-4.746,0.584-15.056,0.643-24.278,10.689    c-7.242,7.645-9.608,25.081-9.608,25.081s-2.417,20.4-2.417,40.859v2.453v16.684c0,20.459,2.417,40.881,2.417,40.881    s2.366,17.422,9.608,25.066c9.223,10.047,21.35,9.732,26.709,10.77c19.379,1.949,82.348,2.57,82.348,2.57    s50.876-0.117,84.779-2.65c4.744-0.592,15.07-0.643,24.277-10.689c7.25-7.645,9.602-25.066,9.602-25.066    s2.424-20.422,2.424-40.881v-15.625v-3.512C375.658,234.044,373.234,213.622,373.234,213.622z M294.982,261.535l-65.392,35.324    l-0.029-54.389v-16.545l29.492,16.078L294.982,261.535z" style="fill:#FFFFFF;"/></g></g><g id="Layer_1"/></svg>